<svg width="17" height="18" viewBox="0 0 17 18" fill="none" xmlns="http://www.w3.org/2000/svg">
<g clip-path="url(#clip0_3133_1602)">
<path d="M8.5 17.7197C3.81305 17.7197 0 13.9066 0 9.21962C0 4.53283 3.81305 0.719727 8.5 0.719727C13.1867 0.719727 16.9998 4.53283 16.9998 9.21962C17 13.9066 13.1869 17.7197 8.5 17.7197ZM8.5 1.74039C4.37591 1.74039 1.02065 5.09569 1.02065 9.21962C1.02065 13.3436 4.37591 16.6989 8.5 16.6989C12.6241 16.6989 15.9791 13.3433 15.9791 9.21962C15.9791 5.09569 12.6243 1.74039 8.5 1.74039Z" fill="#8BA0B4"/>
<path d="M8.68593 4.26465H7.66528V9.70923H8.68593V4.26465Z" fill="#8BA0B4"/>
<path d="M12.2473 12.8469L8.39746 8.99707L7.67576 9.71878L11.5256 13.5686L12.2473 12.8469Z" fill="#8BA0B4"/>
</g>
<defs>
<clipPath id="clip0_3133_1602">
<rect width="17" height="17" fill="white" transform="translate(0 0.719727)"/>
</clipPath>
</defs>
</svg>
