<svg width="17" height="15" viewBox="0 0 17 15" fill="none" xmlns="http://www.w3.org/2000/svg">
<path d="M8.50298 2.80221C8.52189 2.77715 8.5345 2.75209 8.5471 2.72703C8.90009 2.13186 9.3224 1.59308 9.83927 1.12947C10.1481 0.847551 10.4822 0.609484 10.8541 0.415272C11.2008 0.233589 11.5664 0.108291 11.9509 0.0456417C12.2534 -0.00447764 12.5623 -0.0107426 12.8711 0.0143171C13.4132 0.0644365 13.9175 0.233589 14.3965 0.477921C14.7432 0.653339 15.071 0.860081 15.3798 1.09188C15.55 1.22345 15.7013 1.3738 15.84 1.54296C16.1551 1.92512 16.4009 2.35113 16.59 2.80847C16.7665 3.24075 16.8926 3.68556 16.9556 4.1429C16.9998 4.51253 17.0124 4.87589 16.9872 5.24552C16.9367 6.10382 16.6909 6.89946 16.2875 7.65752C15.9849 8.22136 15.613 8.73508 15.1844 9.21122C14.7936 9.64349 14.3713 10.0319 13.9175 10.3953C13.4384 10.7837 12.9405 11.1533 12.4488 11.523C11.8437 11.9803 11.2386 12.4376 10.6461 12.9138C10.2238 13.2521 9.80775 13.6029 9.41065 13.9788C9.21525 14.1668 9.01354 14.3547 8.83705 14.5615C8.7299 14.693 8.62905 14.8246 8.5282 14.9561C8.51559 14.9687 8.50928 14.9812 8.49668 15C8.48407 14.9812 8.47147 14.9749 8.46516 14.9624C8.25715 14.668 8.01763 14.4048 7.7592 14.1542C7.20451 13.6092 6.60571 13.1143 5.99429 12.6381C5.37027 12.1557 4.73994 11.6796 4.11592 11.2035C3.73143 10.909 3.34062 10.6208 2.96873 10.3138C2.42035 9.86277 1.90979 9.36784 1.46856 8.81026C1.05885 8.29654 0.712172 7.74522 0.460042 7.13753C0.270945 6.69898 0.138576 6.24791 0.0692407 5.77178C0.0125115 5.39588 -0.0127015 5.01999 0.00620824 4.64409C0.0440277 3.87351 0.239428 3.14678 0.579804 2.45763C0.762598 2.09427 0.976908 1.75596 1.24795 1.45525C1.39292 1.29236 1.5505 1.14827 1.7333 1.02297C2.07367 0.778637 2.43296 0.56563 2.81115 0.390212C3.13262 0.246119 3.46039 0.139615 3.80076 0.0707014C4.13483 0.00178728 4.48151 -0.0170075 4.82819 0.020582C5.37657 0.0769663 5.88714 0.258649 6.35988 0.54057C6.73807 0.766107 7.07845 1.04176 7.38731 1.34874C7.79702 1.76223 8.1437 2.21957 8.44625 2.72076C8.45886 2.74582 8.47147 2.77715 8.50298 2.80221Z" fill="#DEE5EB"/>
</svg>
