<svg width="22" height="23" viewBox="0 0 22 23" fill="none" xmlns="http://www.w3.org/2000/svg">
<g clip-path="url(#clip0_3133_1652)">
<path d="M20.1472 13.5749C20.1584 13.3876 20.1666 13.207 20.1666 13.0941C20.1666 10.2914 18.8992 7.69423 16.7621 5.96487C16.3686 5.64638 15.7914 5.70727 15.4729 6.10082C15.1544 6.49437 15.2153 7.07157 15.6088 7.39005C17.3203 8.77498 18.3332 10.8508 18.3332 13.0942C18.3332 13.0943 18.3332 13.0944 18.3332 13.0945C16.3082 13.0946 14.6667 14.7361 14.6667 16.7612C14.6667 18.7864 16.3082 20.4278 18.3334 20.4278C20.3586 20.4278 22.0001 18.7864 22.0001 16.7612C22.0001 15.396 21.2536 14.2061 20.1472 13.5749ZM18.3334 18.5945C17.3208 18.5945 16.5001 17.7738 16.5001 16.7612C16.5001 15.7485 17.3208 14.9278 18.3334 14.9278C19.3461 14.9278 20.1668 15.7485 20.1668 16.7612C20.1668 17.7738 19.3461 18.5945 18.3334 18.5945Z" fill="#8BA0B4"/>
<path d="M2.75149 12.1554C3.2452 12.2674 3.73625 11.9579 3.84818 11.4642C4.33768 9.30583 5.78711 7.49423 7.74051 6.52335C8.34968 7.70361 9.58004 8.51104 10.9999 8.51104C13.0251 8.51104 14.6666 6.86955 14.6666 4.84439C14.6666 2.81923 13.0251 1.17773 10.9999 1.17773C9.02643 1.17773 7.41803 2.73664 7.33712 4.69021C4.68749 5.84629 2.70672 8.20832 2.06026 11.0587C1.94828 11.5524 2.25778 12.0434 2.75149 12.1554ZM10.9999 3.01108C12.0125 3.01108 12.8333 3.83174 12.8333 4.84443C12.8333 5.85712 12.0125 6.67773 10.9999 6.67773C10.0924 6.67773 9.3395 6.01842 9.1929 5.15273C9.19131 5.14311 9.18963 5.13348 9.18774 5.1239C9.17382 5.03276 9.1666 4.93948 9.1666 4.84443C9.16656 3.83174 9.98726 3.01108 10.9999 3.01108Z" fill="#8BA0B4"/>
<path d="M13.4447 20.0109C12.6683 20.2857 11.8452 20.4277 10.9997 20.4277C9.38399 20.4277 7.85318 19.9036 6.60009 18.9614C7.06041 18.3486 7.33335 17.5869 7.33335 16.7614C7.33335 14.7362 5.69186 13.0947 3.6667 13.0947C1.64154 13.0947 0 14.7362 0 16.7614C0 18.7866 1.64149 20.428 3.66665 20.428C4.18352 20.428 4.67513 20.3206 5.1211 20.1276C6.75211 21.4932 8.81603 22.2611 10.9996 22.2611C12.054 22.2611 13.084 22.0834 14.0564 21.7392C14.5336 21.5703 14.7836 21.0465 14.6147 20.5692C14.4457 20.092 13.922 19.842 13.4447 20.0109ZM1.83335 16.7614C1.83335 15.7487 2.65401 14.928 3.6667 14.928C4.67938 14.928 5.5 15.7487 5.5 16.7614C5.5 17.7741 4.67934 18.5947 3.66665 18.5947C2.65396 18.5947 1.83335 17.774 1.83335 16.7614Z" fill="#8BA0B4"/>
</g>
<defs>
<clipPath id="clip0_3133_1652">
<rect width="22" height="22" fill="white" transform="translate(0 0.719727)"/>
</clipPath>
</defs>
</svg>
